<?xml version="1.0" encoding="UTF-8"?>
<svg id="Layer_1" xmlns="http://www.w3.org/2000/svg" version="1.1" viewBox="0 0 40 40">
  <!-- Generator: Adobe Illustrator 30.3.0, SVG Export Plug-In . SVG Version: 2.1.3 Build 182)  -->
  <defs>
    <style>
      .st0 {
        fill: #f7f7f9;
        stroke: #231f20;
        stroke-miterlimit: 10;
        stroke-width: .25px;
      }
    </style>
  </defs>
  <path class="st0" d="M16.04,32.7c-.58,0-1.16-.22-1.75-.67-.59-.45-1.09-.99-1.49-1.63-.4-.64-.6-1.25-.6-1.82,0-1.02.27-1.82.82-2.4.54-.58,1.41-1.1,2.59-1.58l4.9-2.02c.64-.26,1.02-.48,1.13-.67.11-.19.18-.61.22-1.25l.1-3.07c.03-.83-.2-1.55-.7-2.16-.5-.61-1.21-.91-2.14-.91-.48,0-.96.08-1.44.24s-.88.37-1.2.62c-.19.13-.32.32-.38.58-.06.26-.1.53-.1.82,0,.13,0,.27.02.43.02.16.02.3.02.43,0,.16-.2.38-.6.65-.4.27-.85.51-1.34.72-.5.21-.9.31-1.22.31-.16,0-.29-.04-.38-.12-.1-.08-.14-.18-.14-.31,0-.51.17-1.06.5-1.66.34-.59.81-1.14,1.42-1.66.74-.67,1.54-1.26,2.4-1.78.86-.51,1.71-.91,2.54-1.2.83-.29,1.57-.43,2.21-.43,1.15,0,2.1.41,2.86,1.22.75.82,1.11,1.83,1.08,3.05l-.24,11.52c-.03.67.12,1.22.46,1.63.34.42.76.62,1.27.62.8,0,1.39-.18,1.78-.53.16-.16.29-.24.38-.24.16,0,.29.05.38.14.1.1.14.22.14.38,0,.35-.18.7-.53,1.06-.51.51-1.06.92-1.66,1.22-.59.3-1.14.46-1.66.46-1.47,0-2.64-.83-3.5-2.5h-.14c-1.06.86-2.06,1.5-3.02,1.9-.96.4-1.95.6-2.98.6ZM18.3,30.39c.64,0,1.18-.1,1.63-.31.45-.21.85-.49,1.2-.84.16-.16.3-.38.41-.65.11-.27.18-.71.22-1.32l.1-2.35c.03-.35.02-.61-.05-.77-.06-.16-.19-.24-.38-.24-.06,0-.18.02-.34.05-.16.03-.37.1-.62.19-1.7.61-2.87,1.24-3.53,1.9-.66.66-.98,1.26-.98,1.8,0,.83.25,1.46.74,1.9.5.43,1.03.65,1.61.65Z"/>
</svg>